name rise44.9368peak50.754fall52.0217.mot
datacolumns 19
datarows 24
range 3.50832500000000 3.54665700000000
endheader
time	ground_force1_vx	ground_force1_vy	ground_force1_vz	ground_force1_px	ground_force1_py	ground_force1_pz	ground_force2_vx	ground_force2_vy	ground_force2_vz	ground_force2_px	ground_force2_py	ground_force2_pz	ground_torque1_x	ground_torque1_y	ground_torque1_z	ground_torque2_x	ground_torque2_y	ground_torque2_z	
3.50832500000000	10.83176500000000	707.05912200000000	46.47551300000000	0.26844800000000	0.00000000000000	0.10593500000000	0.00000000000000	0.00000000000000	0.00000000000000	0.00000000000000	0.00000000000000	0.00000000000000	0.00000000000000	21.84622300000000	0.00000000000000	0.00000000000000	0.00000000000000	0.00000000000000	
3.50998700000000	10.47564500000000	707.04933400000004	46.47089300000000	0.26741100000000	0.00000000000000	0.10595700000000	0.00000000000000	0.00000000000000	0.00000000000000	0.00000000000000	0.00000000000000	0.00000000000000	0.00000000000000	21.83485600000000	0.00000000000000	0.00000000000000	0.00000000000000	0.00000000000000	
3.51165600000000	10.11534900000000	707.05887600000005	46.46964700000000	0.26639700000000	0.00000000000000	0.10597800000000	0.00000000000000	0.00000000000000	0.00000000000000	0.00000000000000	0.00000000000000	0.00000000000000	0.00000000000000	21.82860100000000	0.00000000000000	0.00000000000000	0.00000000000000	0.00000000000000	
3.51332400000000	9.75048500000000	707.08678299999997	46.47152400000000	0.26540700000000	0.00000000000000	0.10599800000000	0.00000000000000	0.00000000000000	0.00000000000000	0.00000000000000	0.00000000000000	0.00000000000000	0.00000000000000	21.82736900000000	0.00000000000000	0.00000000000000	0.00000000000000	0.00000000000000	
3.51499300000000	9.38066800000000	707.13215100000002	46.47628200000000	0.26444100000000	0.00000000000000	0.10601600000000	0.00000000000000	0.00000000000000	0.00000000000000	0.00000000000000	0.00000000000000	0.00000000000000	0.00000000000000	21.83107000000000	0.00000000000000	0.00000000000000	0.00000000000000	0.00000000000000	
3.51666700000000	9.00551300000000	707.19414400000005	46.48368600000000	0.26349800000000	0.00000000000000	0.10603300000000	0.00000000000000	0.00000000000000	0.00000000000000	0.00000000000000	0.00000000000000	0.00000000000000	0.00000000000000	21.83961400000000	0.00000000000000	0.00000000000000	0.00000000000000	0.00000000000000	
3.51832600000000	8.62464200000000	707.27199700000006	46.49351200000000	0.26257700000000	0.00000000000000	0.10604800000000	0.00000000000000	0.00000000000000	0.00000000000000	0.00000000000000	0.00000000000000	0.00000000000000	0.00000000000000	21.85290900000000	0.00000000000000	0.00000000000000	0.00000000000000	0.00000000000000	
3.51999300000000	8.23768200000000	707.36502399999995	46.50554800000000	0.26167900000000	0.00000000000000	0.10606200000000	0.00000000000000	0.00000000000000	0.00000000000000	0.00000000000000	0.00000000000000	0.00000000000000	0.00000000000000	21.87086500000000	0.00000000000000	0.00000000000000	0.00000000000000	0.00000000000000	
3.52166300000000	7.84426600000000	707.47262300000000	46.51959100000000	0.26080100000000	0.00000000000000	0.10607500000000	0.00000000000000	0.00000000000000	0.00000000000000	0.00000000000000	0.00000000000000	0.00000000000000	0.00000000000000	21.89339200000000	0.00000000000000	0.00000000000000	0.00000000000000	0.00000000000000	
3.52332100000000	7.44403700000000	707.59427800000003	46.53545300000000	0.25994500000000	0.00000000000000	0.10608600000000	0.00000000000000	0.00000000000000	0.00000000000000	0.00000000000000	0.00000000000000	0.00000000000000	0.00000000000000	21.92039900000000	0.00000000000000	0.00000000000000	0.00000000000000	0.00000000000000	
3.52498700000000	7.03664700000000	707.72956699999997	46.55295600000000	0.25910700000000	0.00000000000000	0.10609500000000	0.00000000000000	0.00000000000000	0.00000000000000	0.00000000000000	0.00000000000000	0.00000000000000	0.00000000000000	21.95179300000000	0.00000000000000	0.00000000000000	0.00000000000000	0.00000000000000	
3.52666100000000	6.62175800000000	707.87815999999998	46.57193800000000	0.25828900000000	0.00000000000000	0.10610300000000	0.00000000000000	0.00000000000000	0.00000000000000	0.00000000000000	0.00000000000000	0.00000000000000	0.00000000000000	21.98748600000000	0.00000000000000	0.00000000000000	0.00000000000000	0.00000000000000	
3.52832200000000	6.19904500000000	708.03982599999995	46.59225000000000	0.25748800000000	0.00000000000000	0.10611000000000	0.00000000000000	0.00000000000000	0.00000000000000	0.00000000000000	0.00000000000000	0.00000000000000	0.00000000000000	22.02738400000000	0.00000000000000	0.00000000000000	0.00000000000000	0.00000000000000	
3.52999200000000	5.76819400000000	708.21443299999999	46.61375800000000	0.25670300000000	0.00000000000000	0.10611500000000	0.00000000000000	0.00000000000000	0.00000000000000	0.00000000000000	0.00000000000000	0.00000000000000	0.00000000000000	22.07139600000000	0.00000000000000	0.00000000000000	0.00000000000000	0.00000000000000	
3.53166000000000	5.32890900000000	708.40195200000005	46.63634100000000	0.25593400000000	0.00000000000000	0.10611800000000	0.00000000000000	0.00000000000000	0.00000000000000	0.00000000000000	0.00000000000000	0.00000000000000	0.00000000000000	22.11943200000000	0.00000000000000	0.00000000000000	0.00000000000000	0.00000000000000	
3.53332100000000	4.88090400000000	708.60245399999997	46.65989500000000	0.25517900000000	0.00000000000000	0.10612000000000	0.00000000000000	0.00000000000000	0.00000000000000	0.00000000000000	0.00000000000000	0.00000000000000	0.00000000000000	22.17140000000000	0.00000000000000	0.00000000000000	0.00000000000000	0.00000000000000	
3.53499100000000	4.42391300000000	708.81611199999998	46.68433200000000	0.25443600000000	0.00000000000000	0.10612100000000	0.00000000000000	0.00000000000000	0.00000000000000	0.00000000000000	0.00000000000000	0.00000000000000	0.00000000000000	22.22720700000000	0.00000000000000	0.00000000000000	0.00000000000000	0.00000000000000	
3.53665700000000	3.95768500000000	709.04320399999995	46.70957800000000	0.25370400000000	0.00000000000000	0.10612000000000	0.00000000000000	0.00000000000000	0.00000000000000	0.00000000000000	0.00000000000000	0.00000000000000	0.00000000000000	22.28676200000000	0.00000000000000	0.00000000000000	0.00000000000000	0.00000000000000	
3.53832200000000	3.48199000000000	709.28410599999995	46.73557800000000	0.25298200000000	0.00000000000000	0.10611800000000	0.00000000000000	0.00000000000000	0.00000000000000	0.00000000000000	0.00000000000000	0.00000000000000	0.00000000000000	22.34997300000000	0.00000000000000	0.00000000000000	0.00000000000000	0.00000000000000	
3.53998600000000	2.99661400000000	709.53929600000004	46.76228900000000	0.25226800000000	0.00000000000000	0.10611500000000	0.00000000000000	0.00000000000000	0.00000000000000	0.00000000000000	0.00000000000000	0.00000000000000	0.00000000000000	22.41675000000000	0.00000000000000	0.00000000000000	0.00000000000000	0.00000000000000	
3.54165800000000	2.50136400000000	709.80934700000000	46.78968700000000	0.25156100000000	0.00000000000000	0.10611100000000	0.00000000000000	0.00000000000000	0.00000000000000	0.00000000000000	0.00000000000000	0.00000000000000	0.00000000000000	22.48699900000000	0.00000000000000	0.00000000000000	0.00000000000000	0.00000000000000	
3.54332200000000	1.99606800000000	710.09492899999998	46.81776300000000	0.25085900000000	0.00000000000000	0.10610500000000	0.00000000000000	0.00000000000000	0.00000000000000	0.00000000000000	0.00000000000000	0.00000000000000	0.00000000000000	22.56062900000000	0.00000000000000	0.00000000000000	0.00000000000000	0.00000000000000	
3.54499200000000	1.48057600000000	710.39680099999998	46.84652400000000	0.25016000000000	0.00000000000000	0.10609900000000	0.00000000000000	0.00000000000000	0.00000000000000	0.00000000000000	0.00000000000000	0.00000000000000	0.00000000000000	22.63754900000000	0.00000000000000	0.00000000000000	0.00000000000000	0.00000000000000	
3.54665700000000	0.95476100000000	710.71581200000003	46.87599400000000	0.24946400000000	0.00000000000000	0.10609100000000	0.00000000000000	0.00000000000000	0.00000000000000	0.00000000000000	0.00000000000000	0.00000000000000	0.00000000000000	22.71766900000000	0.00000000000000	0.00000000000000	0.00000000000000	0.00000000000000	
